<svg width="101" height="162" viewBox="0 0 101 162" fill="none" xmlns="http://www.w3.org/2000/svg">
<mask id="path-1-outside-1_1264_5249" maskUnits="userSpaceOnUse" x="0" y="0" width="101" height="162" fill="black">
<rect fill="white" width="101" height="162"/>
<path d="M81 20C72.9894 20 65.0572 21.5778 57.6563 24.6433C50.2554 27.7089 43.5309 32.2021 37.8665 37.8665C32.2021 43.5309 27.7089 50.2555 24.6433 57.6563C21.5778 65.0572 20 72.9894 20 81C20 89.0106 21.5778 96.9428 24.6433 104.344C27.7089 111.745 32.2021 118.469 37.8665 124.134C43.5309 129.798 50.2555 134.291 57.6563 137.357C65.0572 140.422 72.9894 142 81 142V130.05C74.5587 130.05 68.1805 128.781 62.2295 126.316C56.2786 123.851 50.8714 120.238 46.3167 115.683C41.762 111.129 38.149 105.721 35.6841 99.7705C33.2191 93.8195 31.9504 87.4413 31.9504 81C31.9504 74.5587 33.2191 68.1805 35.6841 62.2295C38.149 56.2786 41.762 50.8714 46.3167 46.3167C50.8714 41.762 56.2786 38.149 62.2295 35.6841C68.1805 33.2191 74.5587 31.9504 81 31.9504V20Z"/>
</mask>
<path d="M81 20C72.9894 20 65.0572 21.5778 57.6563 24.6433C50.2554 27.7089 43.5309 32.2021 37.8665 37.8665C32.2021 43.5309 27.7089 50.2555 24.6433 57.6563C21.5778 65.0572 20 72.9894 20 81C20 89.0106 21.5778 96.9428 24.6433 104.344C27.7089 111.745 32.2021 118.469 37.8665 124.134C43.5309 129.798 50.2555 134.291 57.6563 137.357C65.0572 140.422 72.9894 142 81 142V130.05C74.5587 130.05 68.1805 128.781 62.2295 126.316C56.2786 123.851 50.8714 120.238 46.3167 115.683C41.762 111.129 38.149 105.721 35.6841 99.7705C33.2191 93.8195 31.9504 87.4413 31.9504 81C31.9504 74.5587 33.2191 68.1805 35.6841 62.2295C38.149 56.2786 41.762 50.8714 46.3167 46.3167C50.8714 41.762 56.2786 38.149 62.2295 35.6841C68.1805 33.2191 74.5587 31.9504 81 31.9504V20Z" fill="white"/>
<path d="M81 20C72.9894 20 65.0572 21.5778 57.6563 24.6433C50.2554 27.7089 43.5309 32.2021 37.8665 37.8665C32.2021 43.5309 27.7089 50.2555 24.6433 57.6563C21.5778 65.0572 20 72.9894 20 81C20 89.0106 21.5778 96.9428 24.6433 104.344C27.7089 111.745 32.2021 118.469 37.8665 124.134C43.5309 129.798 50.2555 134.291 57.6563 137.357C65.0572 140.422 72.9894 142 81 142V130.05C74.5587 130.05 68.1805 128.781 62.2295 126.316C56.2786 123.851 50.8714 120.238 46.3167 115.683C41.762 111.129 38.149 105.721 35.6841 99.7705C33.2191 93.8195 31.9504 87.4413 31.9504 81C31.9504 74.5587 33.2191 68.1805 35.6841 62.2295C38.149 56.2786 41.762 50.8714 46.3167 46.3167C50.8714 41.762 56.2786 38.149 62.2295 35.6841C68.1805 33.2191 74.5587 31.9504 81 31.9504V20Z" stroke="#09203B" stroke-width="40" mask="url(#path-1-outside-1_1264_5249)"/>
</svg>
