<svg width="29" height="28" viewBox="0 0 29 28" fill="none" xmlns="http://www.w3.org/2000/svg">
<path d="M28.4045 25.4219L20.0606 17.1809C21.4052 15.3561 22.1286 13.1569 22.1264 10.9002C22.1264 4.99332 17.2598 0.1875 11.2783 0.1875C5.29676 0.1875 0.430176 4.99332 0.430176 10.9002C0.430176 16.807 5.29676 21.6128 11.2783 21.6128C13.5636 21.615 15.7906 20.9007 17.6384 19.5728L25.9836 27.8125L28.4045 25.4219ZM11.2783 18.2294C9.81017 18.2295 8.375 17.7997 7.15425 16.9944C5.93351 16.189 4.98203 15.0442 4.42015 13.7048C3.85827 12.3654 3.71122 10.8916 3.9976 9.46966C4.28398 8.04773 4.99093 6.7416 6.02904 5.71645C7.06715 4.69131 8.38979 3.99319 9.82969 3.71038C11.2696 3.42757 12.7621 3.57279 14.1184 4.12765C15.4748 4.68252 16.634 5.62212 17.4496 6.82762C18.2651 8.03312 18.7003 9.45038 18.7002 10.9002C18.6979 12.8433 17.9152 14.7062 16.5238 16.0802C15.1324 17.4542 13.246 18.2271 11.2783 18.2294Z" fill="#B9B9B9"/>
</svg>
