<svg width="88" height="36" viewBox="0 0 88 36" fill="none" xmlns="http://www.w3.org/2000/svg">
<path d="M57.4485 8.41797C52.1234 8.41797 47.8086 12.7348 47.8086 18.0579C47.8086 23.383 52.1254 27.6979 57.4485 27.6979C62.7736 27.6979 67.0885 23.381 67.0885 18.0579C67.0885 12.7348 62.7716 8.41797 57.4485 8.41797ZM57.4485 24.169C54.0784 24.169 51.3375 21.428 51.3375 18.0579C51.3375 14.6878 54.0784 11.9469 57.4485 11.9469C60.8186 11.9469 63.5596 14.6878 63.5596 18.0579C63.5576 21.428 60.8167 24.169 57.4485 24.169Z" fill="white"/>
<path d="M45.4808 7.06649V3.5376C40.2212 3.5376 35.946 7.74726 35.8428 12.9811H35.8408V16.2976C35.8408 16.2996 35.8408 16.3015 35.8408 16.3015V16.3035V23.3653V23.405V32.5805H39.3717V23.405V23.399V23.3653V19.8662H45.4827V16.3373H39.3717V13.1736C39.3717 9.80545 42.1106 7.06649 45.4808 7.06649Z" fill="white"/>
<path d="M71.0545 27.7078L68.4167 25.07L75.3395 18.1472L68.25 11.0577L70.8798 8.42789L77.9773 15.5095L85.0688 8.41797L87.7065 11.0557L71.0545 27.7078Z" fill="white"/>
<path d="M79.6582 22.4663L82.288 19.8345L87.5397 25.0722L84.8999 27.708L79.6582 22.4663Z" fill="white"/>
<g clip-path="url(#clip0_1189_5908)">
<path d="M26.5755 0.792764C26.5755 0.308485 26.0515 0.00680219 25.6327 0.248942L16.4592 5.55418L13.881 7.04473C13.6706 7.1658 13.4126 7.1658 13.2022 7.04473L1.45448 0.248942C1.03569 0.00680219 0.511719 0.308485 0.511719 0.792764V13.4773V17.3893V19.2966V19.7531V25.0226C0.511719 27.2634 1.70654 29.3335 3.64564 30.4549L13.0157 35.8752C13.3034 36.042 13.7758 36.042 14.0636 35.8752L23.4416 30.4509C25.3807 29.3295 26.5755 27.2575 26.5755 25.0187V17.3893V13.4773V0.792764ZM2.76838 11.3556V4.15295C2.76838 3.91478 3.0264 3.76394 3.2348 3.88501L9.93929 7.7652L10.9555 8.3507C11.1043 8.43604 11.1043 8.64841 10.9575 8.73574L4.37008 12.6179C3.77664 12.9593 3.24075 13.3761 2.76838 13.8465V13.4753V11.3556ZM11.7434 32.5309L4.59634 28.3967C3.46503 27.7417 2.77037 26.535 2.77434 25.229L2.78228 20.8824V20.1639C2.78228 17.6929 4.10015 15.4105 6.23773 14.174L23.8326 3.91478C24.0429 3.79172 24.3069 3.94455 24.3069 4.18868V12.6536L24.3109 14.3744C24.3109 14.6741 24.1521 14.95 23.8941 15.1008L23.1716 15.5196L23.1776 15.5236L17.0447 19.0723C16.8959 19.1597 15.5105 19.9635 15.5105 19.9635C13.5496 21.0968 12.3389 23.1907 12.3369 25.4553V25.8145V26.7791V32.1955C12.3329 32.4952 12.0054 32.6838 11.7434 32.5309ZM24.3208 25.3878C24.3208 26.5926 23.6777 27.708 22.6338 28.3114L15.185 32.5984C14.927 32.7473 14.6035 32.5607 14.6035 32.263V26.4933H14.6015C14.6015 24.3954 15.7209 22.4563 17.5369 21.4044L23.8405 17.7584C24.0469 17.6393 24.3049 17.7882 24.3049 18.0264L24.3208 25.3878Z" fill="white"/>
<path d="M11.7435 32.5307L4.59643 28.3965C3.46512 27.7415 2.77046 26.5348 2.77443 25.2288L2.78237 20.8822V20.1637C2.78237 17.6927 4.10025 15.4103 6.23782 14.1738L23.8327 3.91458C24.043 3.79152 24.307 3.94435 24.307 4.18847V12.6534L24.311 14.3742C24.311 14.6739 24.1522 14.9498 23.8942 15.1006L23.1717 15.5194L23.1777 15.5234L17.0448 19.0721C16.8959 19.1595 15.5106 19.9633 15.5106 19.9633C13.5497 21.0966 12.339 23.1905 12.337 25.4551V25.8143V26.7789V32.1953C12.333 32.495 12.0055 32.6836 11.7435 32.5307Z" fill="white"/>
</g>
<defs>
<clipPath id="clip0_1189_5908">
<rect width="26.0638" height="35.8367" fill="white" transform="translate(0.511719 0.163574)"/>
</clipPath>
</defs>
</svg>
