<svg width="27" height="36" viewBox="0 0 27 36" fill="none" xmlns="http://www.w3.org/2000/svg">
<path d="M26.5755 0.792764C26.5755 0.308485 26.0515 0.00680219 25.6327 0.248942L16.4592 5.55418L13.881 7.04473C13.6706 7.1658 13.4126 7.1658 13.2022 7.04473L1.45448 0.248942C1.03569 0.00680219 0.511719 0.308485 0.511719 0.792764V13.4773V17.3893V19.2966V19.7531V25.0226C0.511719 27.2634 1.70654 29.3335 3.64564 30.4549L13.0157 35.8752C13.3034 36.042 13.7758 36.042 14.0636 35.8752L23.4416 30.4509C25.3807 29.3295 26.5755 27.2575 26.5755 25.0187V17.3893V13.4773V0.792764ZM2.76838 11.3556V4.15295C2.76838 3.91478 3.0264 3.76394 3.2348 3.88501L9.93929 7.7652L10.9555 8.3507C11.1043 8.43605 11.1043 8.64841 10.9575 8.73574L4.37008 12.6179C3.77664 12.9593 3.24075 13.3761 2.76838 13.8465V13.4753V11.3556V11.3556ZM11.7434 32.5309L4.59634 28.3967C3.46503 27.7417 2.77037 26.535 2.77434 25.229L2.78228 20.8824V20.1639C2.78228 17.6929 4.10015 15.4105 6.23773 14.174L23.8326 3.91478C24.0429 3.79172 24.3069 3.94455 24.3069 4.18868V12.6536L24.3109 14.3744C24.3109 14.6741 24.1521 14.95 23.8941 15.1008L23.1716 15.5196L23.1776 15.5236L17.0447 19.0723C16.8959 19.1597 15.5105 19.9635 15.5105 19.9635C13.5496 21.0968 12.3389 23.1907 12.3369 25.4553V25.8145V26.7791V32.1955C12.3329 32.4952 12.0054 32.6838 11.7434 32.5309ZM24.3208 25.3878C24.3208 26.5926 23.6777 27.708 22.6338 28.3114L15.185 32.5984C14.927 32.7473 14.6035 32.5607 14.6035 32.263V26.4933H14.6015C14.6015 24.3954 15.7209 22.4563 17.5369 21.4044L23.8405 17.7584C24.0469 17.6393 24.3049 17.7882 24.3049 18.0264L24.3208 25.3878Z" fill="white"/>
</svg>
